<svg class="svg" width="34" height="34" viewBox="0 0 34 34" fill="none" xmlns="http://www.w3.org/2000/svg">
<g id="bishop_W">
<g id="Group">
<path id="Vector" fill-rule="evenodd" clip-rule="evenodd" d="M3.86667 30.1444C7.106 29.2176 13.5273 30.5553 16.7667 28.2333C20.006 30.5553 26.4273 29.2176 29.6667 30.1444C29.6667 30.1444 31.2433 30.6604 32.5333 32.0556C31.8836 32.9824 30.9567 33.0016 29.6667 32.5333C26.4273 31.6064 20.006 32.9729 16.7667 31.5778C13.5273 32.9729 7.106 31.6064 3.86667 32.5333C2.57284 33.0016 1.64691 32.9824 1 32.0556C2.29382 30.2018 3.86667 30.1444 3.86667 30.1444Z" fill="white" stroke="black" stroke-width="1.5" stroke-linejoin="round"/>
<path id="Vector_2" fill-rule="evenodd" clip-rule="evenodd" d="M9.59999 26.3222C11.9889 28.7111 21.5444 28.7111 23.9333 26.3222C24.4111 24.8889 23.9333 24.4111 23.9333 24.4111C23.9333 22.0222 21.5444 20.5889 21.5444 20.5889C26.8 19.1555 27.2778 9.59999 16.7667 5.77777C6.25555 9.59999 6.73332 19.1555 11.9889 20.5889C11.9889 20.5889 9.59999 22.0222 9.59999 24.4111C9.59999 24.4111 9.12221 24.8889 9.59999 26.3222Z" fill="white" stroke="black" stroke-width="1.5" stroke-linejoin="round"/>
<path id="Vector_3" fill-rule="evenodd" clip-rule="evenodd" d="M19.1555 3.38889C19.1555 4.02246 18.9038 4.63009 18.4558 5.07809C18.0078 5.52609 17.4002 5.77778 16.7666 5.77778C16.1331 5.77778 15.5254 5.52609 15.0774 5.07809C14.6294 4.63009 14.3777 4.02246 14.3777 3.38889C14.3777 2.75532 14.6294 2.14769 15.0774 1.69969C15.5254 1.25169 16.1331 1 16.7666 1C17.4002 1 18.0078 1.25169 18.4558 1.69969C18.9038 2.14769 19.1555 2.75532 19.1555 3.38889V3.38889Z" fill="white" stroke="black" stroke-width="1.5" stroke-linejoin="round"/>
</g>
<path id="Vector_4" d="M14.3778 12.9444H19.1555M11.9889 20.5889H21.5444H11.9889ZM9.59998 24.4111H23.9333H9.59998ZM16.7666 10.5555V15.3333V10.5555Z" stroke="black" stroke-width="1.5" stroke-linecap="round"/>
</g>
</svg>
