<svg class="svg" width="37" height="35" viewBox="0 0 37 35" fill="none" xmlns="http://www.w3.org/2000/svg">
<g id="queen_B">
<g id="Group">
<path id="Vector" d="M2.62778 9.07779C4.07906 9.07779 5.25555 7.90129 5.25555 6.45001C5.25555 4.99873 4.07906 3.82224 2.62778 3.82224C1.1765 3.82224 0 4.99873 0 6.45001C0 7.90129 1.1765 9.07779 2.62778 9.07779Z" fill="black"/>
<path id="Vector_2" d="M10.2722 6.21112C11.7235 6.21112 12.9 5.03462 12.9 3.58334C12.9 2.13206 11.7235 0.955566 10.2722 0.955566C8.82097 0.955566 7.64447 2.13206 7.64447 3.58334C7.64447 5.03462 8.82097 6.21112 10.2722 6.21112Z" fill="black"/>
<path id="Vector_3" d="M18.3944 5.25555C19.8457 5.25555 21.0222 4.07906 21.0222 2.62778C21.0222 1.1765 19.8457 0 18.3944 0C16.9432 0 15.7667 1.1765 15.7667 2.62778C15.7667 4.07906 16.9432 5.25555 18.3944 5.25555Z" fill="black"/>
<path id="Vector_4" d="M26.5167 6.21112C27.968 6.21112 29.1445 5.03462 29.1445 3.58334C29.1445 2.13206 27.968 0.955566 26.5167 0.955566C25.0654 0.955566 23.8889 2.13206 23.8889 3.58334C23.8889 5.03462 25.0654 6.21112 26.5167 6.21112Z" fill="black"/>
<path id="Vector_5" d="M34.1611 9.07779C35.6124 9.07779 36.7889 7.90129 36.7889 6.45001C36.7889 4.99873 35.6124 3.82224 34.1611 3.82224C32.7098 3.82224 31.5333 4.99873 31.5333 6.45001C31.5333 7.90129 32.7098 9.07779 34.1611 9.07779Z" fill="black"/>
</g>
<path id="Vector_6" fill-rule="evenodd" clip-rule="evenodd" d="M5.49442 19.8278C13.6166 18.3944 25.5611 18.3944 31.2944 19.8278L33.6833 7.88332L26.5166 18.8722L26.23 5.39888L21.2611 18.3944L18.3944 4.53888L15.5278 18.3944L10.5589 5.39888L10.2722 18.8722L3.10553 7.88332L5.49442 19.8278Z" fill="black" stroke="black" stroke-width="1.5" stroke-linejoin="round"/>
<path id="Vector_7" fill-rule="evenodd" clip-rule="evenodd" d="M5.49445 19.8278C5.49445 21.7389 6.92778 21.7389 7.88333 23.65C8.83889 25.0833 8.83889 24.6056 8.36111 26.9944C6.92778 27.95 6.92778 29.3833 6.92778 29.3833C5.49445 30.8167 7.40556 31.7722 7.40556 31.7722C13.6167 32.7278 23.1722 32.7278 29.3833 31.7722C29.3833 31.7722 30.8167 30.8167 29.3833 29.3833C29.3833 29.3833 29.8611 27.95 28.4278 26.9944C27.95 24.6056 27.95 25.0833 28.9056 23.65C29.8611 21.7389 31.2944 21.7389 31.2944 19.8278C23.1722 18.3944 13.6167 18.3944 5.49445 19.8278Z" fill="black" stroke="black" stroke-width="1.5" stroke-linejoin="round"/>
<path id="Vector_8" d="M7.40558 31.7722C14.5223 34.248 22.2666 34.248 29.3834 31.7722" stroke="black" stroke-width="1.5" stroke-linejoin="round"/>
<path id="Vector_9" d="M7.40558 22.6945C14.5223 20.2186 22.2666 20.2186 29.3834 22.6945" stroke="white" stroke-width="1.5" stroke-linecap="round" stroke-linejoin="round"/>
<path id="Vector_10" d="M8.83887 25.0833H27.95" stroke="white" stroke-width="1.5" stroke-linecap="round" stroke-linejoin="round"/>
<path id="Vector_11" d="M7.8833 27.95C14.7086 30.2096 22.0803 30.2096 28.9055 27.95" stroke="white" stroke-width="1.5" stroke-linecap="round" stroke-linejoin="round"/>
<path id="Vector_12" d="M6.9278 30.8167C14.3333 33.5195 22.4556 33.5195 29.8611 30.8167" stroke="white" stroke-width="1.5" stroke-linecap="round" stroke-linejoin="round"/>
</g>
</svg>
