<svg width="34" height="34" viewBox="0 0 34 34" fill="none" xmlns="http://www.w3.org/2000/svg">
<g id="king_W">
<path id="Vector" d="M16.9321 6.37978V1" stroke="black" stroke-width="1.5" stroke-linecap="round"/>
<path id="Vector_2" d="M14.5432 2.9111H19.321" stroke="black" stroke-width="1.5" stroke-linecap="round"/>
<path id="Vector_3" fill-rule="evenodd" clip-rule="evenodd" d="M16.9321 19.1556C16.9321 19.1556 21.2321 11.9889 19.7988 9.12223C19.7988 9.12223 18.8432 6.73334 16.9321 6.73334C15.021 6.73334 14.0655 9.12223 14.0655 9.12223C12.6321 11.9889 16.9321 19.1556 16.9321 19.1556Z" fill="white" stroke="black" stroke-width="1.5"/>
<path id="Vector_4" fill-rule="evenodd" clip-rule="evenodd" d="M6.42099 30.6222C11.6765 33.9667 21.2321 33.9667 26.4877 30.6222V23.9333C26.4877 23.9333 35.0877 19.6333 32.221 13.9C28.3988 7.68888 19.321 10.5555 16.9321 17.7222V21.0667V17.7222C13.5877 10.5555 4.50988 7.68888 1.64321 13.9C-1.22345 19.6333 6.42099 23.4555 6.42099 23.4555V30.6222Z" fill="white" stroke="black" stroke-width="1.5" stroke-linecap="round" stroke-linejoin="round"/>
<path id="Vector_5" d="M6.42102 23.9333C11.6766 21.0667 21.2321 21.0667 26.4877 23.9333" stroke="black" stroke-width="1.5" stroke-linecap="round" stroke-linejoin="round"/>
<path id="Vector_6" d="M6.42102 27.2778C11.6766 24.4111 21.2321 24.4111 26.4877 27.2778" stroke="black" stroke-width="1.5" stroke-linecap="round" stroke-linejoin="round"/>
<path id="Vector_7" d="M6.42102 30.6222C11.6766 27.7556 21.2321 27.7556 26.4877 30.6222" stroke="black" stroke-width="1.5" stroke-linecap="round" stroke-linejoin="round"/>
</g>
</svg>
