<svg width="33" height="33" viewBox="0 0 33 33" fill="none" xmlns="http://www.w3.org/2000/svg">
<g id="knight_B">
<g id="Vector">
<path fill-rule="evenodd" clip-rule="evenodd" d="M16.2889 3.86667C26.3222 4.82222 32.0555 11.5111 31.5777 31.5778H9.59998C9.59998 22.9778 19.1555 25.3667 17.2444 11.5111" fill="black"/>
<path d="M16.2889 3.86667C26.3222 4.82222 32.0555 11.5111 31.5777 31.5778H9.59998C9.59998 22.9778 19.1555 25.3667 17.2444 11.5111" stroke="black" stroke-width="1.5" stroke-linecap="round" stroke-linejoin="round"/>
</g>
<g id="Vector_2">
<path fill-rule="evenodd" clip-rule="evenodd" d="M18.2 11.5111C18.5631 14.2918 12.8967 18.5536 10.5556 20.1111C7.68889 22.0222 7.86089 24.2582 5.77778 23.9333C4.78209 23.0351 7.12511 21.0284 5.77778 21.0667C4.82222 21.0667 5.95933 22.242 4.82222 22.9778C3.86667 22.9778 0.997135 23.9333 1 19.1555C1 17.2444 6.73333 7.68889 6.73333 7.68889C6.73333 7.68889 8.53933 5.87333 8.64444 4.34444C7.94689 3.39462 8.16667 2.43333 8.16667 1.47778C9.12222 0.522222 11.0333 3.86667 11.0333 3.86667H12.9444C12.9444 3.86667 13.6898 1.9632 15.3333 1C16.2889 1 16.2889 3.86667 16.2889 3.86667" fill="black"/>
<path d="M18.2 11.5111C18.5631 14.2918 12.8967 18.5536 10.5556 20.1111C7.68889 22.0222 7.86089 24.2582 5.77778 23.9333C4.78209 23.0351 7.12511 21.0284 5.77778 21.0667C4.82222 21.0667 5.95933 22.242 4.82222 22.9778C3.86667 22.9778 0.997135 23.9333 1 19.1555C1 17.2444 6.73333 7.68889 6.73333 7.68889C6.73333 7.68889 8.53933 5.87333 8.64444 4.34444C7.94689 3.39462 8.16667 2.43333 8.16667 1.47778C9.12222 0.522222 11.0333 3.86667 11.0333 3.86667H12.9444C12.9444 3.86667 13.6898 1.9632 15.3333 1C16.2889 1 16.2889 3.86667 16.2889 3.86667" stroke="black" stroke-width="1.5" stroke-linecap="round" stroke-linejoin="round"/>
</g>
<path id="Vector_3" fill-rule="evenodd" clip-rule="evenodd" d="M4.34447 18.6778C4.34447 18.8045 4.29413 18.926 4.20453 19.0156C4.11493 19.1052 3.99341 19.1556 3.86669 19.1556C3.73998 19.1556 3.61845 19.1052 3.52885 19.0156C3.43925 18.926 3.38892 18.8045 3.38892 18.6778C3.38892 18.5511 3.43925 18.4295 3.52885 18.3399C3.61845 18.2503 3.73998 18.2 3.86669 18.2C3.99341 18.2 4.11493 18.2503 4.20453 18.3399C4.29413 18.4295 4.34447 18.5511 4.34447 18.6778Z" fill="white" stroke="white" stroke-width="1.5" stroke-linecap="round" stroke-linejoin="round"/>
<path id="Vector_4" fill-rule="evenodd" clip-rule="evenodd" d="M9.53595 9.3611C9.34588 9.69031 9.12001 9.98086 8.90801 10.1688C8.69602 10.3568 8.51527 10.4268 8.40554 10.3635C8.2958 10.3001 8.26607 10.1086 8.32287 9.831C8.37968 9.55342 8.51838 9.21253 8.70845 8.88333C8.89852 8.55412 9.1244 8.26357 9.33639 8.07559C9.54838 7.8876 9.72913 7.81759 9.83886 7.88095C9.9486 7.94431 9.97833 8.13584 9.92153 8.41343C9.86472 8.69101 9.72602 9.0319 9.53595 9.3611V9.3611Z" fill="white" stroke="white" stroke-width="1.5" stroke-linecap="round" stroke-linejoin="round"/>
<path id="Vector_5" fill-rule="evenodd" clip-rule="evenodd" d="M18.7255 4.2489L18.2955 5.63446L18.7733 5.77779C21.7833 6.73335 24.1722 8.15712 26.3222 12.2278C28.4722 16.2985 29.4277 22.0796 28.95 31.5778L28.9022 32.0556H31.0522L31.1 31.5778C31.5777 21.9649 30.2591 15.4767 27.9944 11.1862C25.7298 6.89579 22.4618 4.84135 19.2129 4.34446L18.7255 4.2489Z" fill="white"/>
</g>
</svg>
