<svg width="24" height="31" viewBox="0 0 24 31" fill="none" xmlns="http://www.w3.org/2000/svg">
<g id="pawn_B">
<path id="Vector" d="M11.9889 1C9.87711 1 8.16666 2.71044 8.16666 4.82222C8.16666 5.67267 8.44378 6.45622 8.912 7.09645C7.04866 8.16667 5.77778 10.1638 5.77778 12.4667C5.77778 14.4064 6.676 16.136 8.08066 17.2731C5.214 18.286 1 22.5764 1 30.1444H22.9778C22.9778 22.5764 18.7638 18.286 15.8971 17.2731C17.3018 16.136 18.2 14.4064 18.2 12.4667C18.2 10.1638 16.9291 8.16667 15.0658 7.09645C15.534 6.45622 15.8111 5.67267 15.8111 4.82222C15.8111 2.71044 14.1007 1 11.9889 1Z" fill="black" stroke="black" stroke-width="1.5" stroke-linecap="round"/>
</g>
</svg>
