<svg width="38" height="34" viewBox="0 0 38 34" fill="none" xmlns="http://www.w3.org/2000/svg">
<g id="queen_W">
<path id="Vector" fill-rule="evenodd" clip-rule="evenodd" d="M4.82222 7.2111C4.82222 7.71796 4.62087 8.20405 4.26247 8.56246C3.90407 8.92086 3.41797 9.12221 2.91111 9.12221C2.40425 9.12221 1.91815 8.92086 1.55975 8.56246C1.20135 8.20405 1 7.71796 1 7.2111C1 6.70424 1.20135 6.21814 1.55975 5.85974C1.91815 5.50134 2.40425 5.29999 2.91111 5.29999C3.41797 5.29999 3.90407 5.50134 4.26247 5.85974C4.62087 6.21814 4.82222 6.70424 4.82222 7.2111V7.2111Z" fill="white" stroke="black" stroke-width="1.5" stroke-linecap="round" stroke-linejoin="round"/>
<path id="Vector_2" fill-rule="evenodd" clip-rule="evenodd" d="M20.5889 2.91111C20.5889 3.41797 20.3875 3.90407 20.0291 4.26247C19.6707 4.62087 19.1846 4.82222 18.6778 4.82222C18.1709 4.82222 17.6848 4.62087 17.3264 4.26247C16.968 3.90407 16.7667 3.41797 16.7667 2.91111C16.7667 2.40425 16.968 1.91815 17.3264 1.55975C17.6848 1.20135 18.1709 1 18.6778 1C19.1846 1 19.6707 1.20135 20.0291 1.55975C20.3875 1.91815 20.5889 2.40425 20.5889 2.91111V2.91111Z" fill="white" stroke="black" stroke-width="1.5" stroke-linecap="round" stroke-linejoin="round"/>
<path id="Vector_3" fill-rule="evenodd" clip-rule="evenodd" d="M36.3556 7.2111C36.3556 7.71796 36.1542 8.20405 35.7958 8.56246C35.4374 8.92086 34.9513 9.12221 34.4444 9.12221C33.9376 9.12221 33.4515 8.92086 33.0931 8.56246C32.7347 8.20405 32.5333 7.71796 32.5333 7.2111C32.5333 6.70424 32.7347 6.21814 33.0931 5.85974C33.4515 5.50134 33.9376 5.29999 34.4444 5.29999C34.9513 5.29999 35.4374 5.50134 35.7958 5.85974C36.1542 6.21814 36.3556 6.70424 36.3556 7.2111V7.2111Z" fill="white" stroke="black" stroke-width="1.5" stroke-linecap="round" stroke-linejoin="round"/>
<path id="Vector_4" fill-rule="evenodd" clip-rule="evenodd" d="M12.4667 3.86668C12.4667 4.37354 12.2653 4.85963 11.9069 5.21804C11.5485 5.57644 11.0624 5.77779 10.5556 5.77779C10.0487 5.77779 9.56262 5.57644 9.20422 5.21804C8.84582 4.85963 8.64447 4.37354 8.64447 3.86668C8.64447 3.35982 8.84582 2.87372 9.20422 2.51532C9.56262 2.15692 10.0487 1.95557 10.5556 1.95557C11.0624 1.95557 11.5485 2.15692 11.9069 2.51532C12.2653 2.87372 12.4667 3.35982 12.4667 3.86668V3.86668Z" fill="white" stroke="black" stroke-width="1.5" stroke-linecap="round" stroke-linejoin="round"/>
<path id="Vector_5" fill-rule="evenodd" clip-rule="evenodd" d="M28.7111 4.34443C28.7111 4.85129 28.5098 5.33739 28.1514 5.69579C27.793 6.05419 27.3069 6.25554 26.8 6.25554C26.2932 6.25554 25.8071 6.05419 25.4487 5.69579C25.0903 5.33739 24.8889 4.85129 24.8889 4.34443C24.8889 3.83757 25.0903 3.35147 25.4487 2.99307C25.8071 2.63467 26.2932 2.43332 26.8 2.43332C27.3069 2.43332 27.793 2.63467 28.1514 2.99307C28.5098 3.35147 28.7111 3.83757 28.7111 4.34443V4.34443Z" fill="white" stroke="black" stroke-width="1.5" stroke-linecap="round" stroke-linejoin="round"/>
<path id="Vector_6" fill-rule="evenodd" clip-rule="evenodd" d="M5.77775 20.5889C13.9 19.1556 25.8444 19.1556 31.5777 20.5889L33.4889 9.12224L26.8 19.6333V6.25557L21.5444 19.1556L18.6777 4.82224L15.8111 19.1556L10.5555 5.77779V19.6333L3.86664 9.12224L5.77775 20.5889Z" fill="white" stroke="black" stroke-width="1.5" stroke-linejoin="round"/>
<path id="Vector_7" fill-rule="evenodd" clip-rule="evenodd" d="M5.77777 20.5889C5.77777 22.5 7.2111 22.5 8.16666 24.4111C9.12222 25.8444 9.12222 25.3667 8.64444 27.7556C7.2111 28.7111 7.2111 30.1444 7.2111 30.1444C5.77777 31.5778 7.68888 32.5333 7.68888 32.5333C13.9 33.4889 23.4555 33.4889 29.6667 32.5333C29.6667 32.5333 31.1 31.5778 29.6667 30.1444C29.6667 30.1444 30.1444 28.7111 28.7111 27.7556C28.2333 25.3667 28.2333 25.8444 29.1889 24.4111C30.1444 22.5 31.5778 22.5 31.5778 20.5889C23.4555 19.1556 13.9 19.1556 5.77777 20.5889Z" fill="white" stroke="black" stroke-width="1.5" stroke-linejoin="round"/>
<path id="Vector_8" d="M8.16669 24.4111C11.5111 23.4556 25.8445 23.4556 29.1889 24.4111" stroke="black" stroke-width="1.5" stroke-linecap="round" stroke-linejoin="round"/>
<path id="Vector_9" d="M8.64447 27.7555C14.3778 26.8 22.9778 26.8 28.7111 27.7555" stroke="black" stroke-width="1.5" stroke-linecap="round" stroke-linejoin="round"/>
</g>
</svg>
