<svg width="28" height="31" viewBox="0 0 28 31" fill="none" xmlns="http://www.w3.org/2000/svg">
<g id="rook_B">
<path id="Vector" fill-rule="evenodd" clip-rule="evenodd" d="M1 29.6667H26.8V26.8H1V29.6667Z" fill="black" stroke="black" stroke-width="1.5" stroke-linejoin="round"/>
<path id="Vector_2" fill-rule="evenodd" clip-rule="evenodd" d="M4.34448 22.9778L5.77782 20.5889H22.0223L23.4556 22.9778H4.34448Z" fill="black" stroke="black" stroke-width="1.5" stroke-linejoin="round"/>
<path id="Vector_3" fill-rule="evenodd" clip-rule="evenodd" d="M3.8667 26.8V22.9778H23.9333V26.8H3.8667Z" fill="black" stroke="black" stroke-width="1.5" stroke-linejoin="round"/>
<path id="Vector_4" fill-rule="evenodd" clip-rule="evenodd" d="M5.77777 20.5889V8.16666H22.0222V20.5889H5.77777Z" fill="black" stroke="black" stroke-width="1.5"/>
<path id="Vector_5" fill-rule="evenodd" clip-rule="evenodd" d="M5.7778 8.16666L2.91113 5.77777H24.8889L22.0222 8.16666H5.7778Z" fill="black" stroke="black" stroke-width="1.5" stroke-linejoin="round"/>
<path id="Vector_6" fill-rule="evenodd" clip-rule="evenodd" d="M2.91113 5.77778V1H6.73336V2.91111H11.5111V1H16.2889V2.91111H21.0667V1H24.8889V5.77778H2.91113Z" fill="black" stroke="black" stroke-width="1.5" stroke-linejoin="round"/>
<path id="Vector_7" d="M3.8667 26.3222H23.9333" stroke="white" stroke-linecap="round"/>
<path id="Vector_8" d="M4.82227 22.5H22.9778" stroke="white" stroke-linecap="round"/>
<path id="Vector_9" d="M5.77777 20.5889H22.0222" stroke="white" stroke-linecap="round"/>
<path id="Vector_10" d="M5.77777 8.16666H22.0222" stroke="white" stroke-linecap="round"/>
<path id="Vector_11" d="M2.91113 5.77777H24.8889" stroke="white" stroke-linecap="round"/>
</g>
</svg>
